<svg xmlns="http://www.w3.org/2000/svg" viewBox="0 0 72 32" fill="none" role="img" aria-label="PerX">
  <g fill="#CC785C">
    <path d="M1.5 7h5.2c4.2 0 7 2.3 7 6s-2.8 6-7 6H6v7.5H1.5V7zm4.5 4.5v5.5h3.4c2 0 3.3-1.15 3.3-2.75S13.4 12 11.4 12H6z"/>
    <path d="M16.5 18.5c0-3.5 2.4-5.75 5.6-5.75 2.5 0 4.25 1.3 4.85 3.45l-3.35.75c-.25-.9-.9-1.45-1.75-1.45-1.15 0-1.9.85-1.9 2.3v.55h5.85V19h-5.85c.15 1.6 1.05 2.5 2.5 2.5 1.1 0 1.9-.6 2.1-1.5h3.55c-.45 2.75-2.6 4.35-5.65 4.35-3.45 0-5.75-2.4-5.75-6.05 0-3.75 2.45-6.15 5.95-6.15 2.65 0 4.5 1.4 5.05 3.55l-3.4.65c-.35-.75-.95-1.15-1.75-1.15-1.05 0-1.75.75-1.75 2z"/>
    <path d="M28.5 13h3.55v1.4c.65-1 1.8-1.55 3.2-1.55 2.65 0 4.15 1.7 4.15 4.5v9h-3.65v-8.45c0-1.4-.8-2.2-2.1-2.2-1.4 0-2.2 1-2.2 2.65v7.75H28.5V13z"/>
  </g>
  <defs>
    <linearGradient id="perx-x" x1="0%" y1="0%" x2="100%" y2="100%">
      <stop offset="0%" stop-color="#CC785C"/>
      <stop offset="100%" stop-color="#E8A55A"/>
    </linearGradient>
  </defs>
  <g transform="translate(40, 0.5)" fill="none" stroke-linecap="round">
    <path d="M4 4 L 10.7 11.7 M 18.3 19.3 L 25 27" stroke="url(#perx-x)" stroke-width="4.4"/>
    <path d="M25 4 L 18.3 11.7 M 10.7 19.3 L 4 27" stroke="url(#perx-x)" stroke-width="4.4"/>
    <circle cx="14.5" cy="15.5" r="2.3" fill="#F0C878"/>
  </g>
</svg>
